TITLE "DJH484"
  TRACK 01 AUDIO
    TITLE "DJH48401"
    INDEX 01 06:00:59
  TRACK 02 AUDIO
    TITLE "DJH48402"
    INDEX 01 06:34:66
  TRACK 03 AUDIO
    TITLE "DJH48403"
    INDEX 01 12:15:81
  TRACK 04 AUDIO
    TITLE "DJH48404"
    INDEX 01 18:22:34
  TRACK 05 AUDIO
    TITLE "DJH48405"
    INDEX 01 25:20:93
  TRACK 06 AUDIO
    TITLE "DJH48406"
    INDEX 01 29:44:40
  TRACK 07 AUDIO
    TITLE "DJH48407"
    INDEX 01 35:44:23
  TRACK 08 AUDIO
    TITLE "DJH48408"
    INDEX 01 49:37:30
